<svg width="36" height="36" viewBox="0 0 36 36" fill="none" xmlns="http://www.w3.org/2000/svg">
<g clip-path="url(#clip0_525_2)">
<path d="M11.25 0H29.25C30.4435 0 31.5881 0.474106 32.432 1.31802C33.2759 2.16193 33.75 3.30653 33.75 4.5V27C33.75 28.1935 33.2759 29.3381 32.432 30.182C31.5881 31.0259 30.4435 31.5 29.25 31.5C29.25 32.6935 28.7759 33.8381 27.932 34.682C27.0881 35.5259 25.9435 36 24.75 36H6.75C5.55653 36 4.41193 35.5259 3.56802 34.682C2.72411 33.8381 2.25 32.6935 2.25 31.5H4.5C4.5 32.0967 4.73705 32.669 5.15901 33.091C5.58097 33.5129 6.15326 33.75 6.75 33.75H24.75C25.3467 33.75 25.919 33.5129 26.341 33.091C26.7629 32.669 27 32.0967 27 31.5V9C27 8.40326 26.7629 7.83097 26.341 7.40901C25.919 6.98705 25.3467 6.75 24.75 6.75H6.75C6.15326 6.75 5.58097 6.98705 5.15901 7.40901C4.73705 7.83097 4.5 8.40326 4.5 9H2.25C2.25 7.80653 2.72411 6.66193 3.56802 5.81802C4.41193 4.97411 5.55653 4.5 6.75 4.5H24.75C25.9435 4.5 27.0881 4.97411 27.932 5.81802C28.7759 6.66193 29.25 7.80653 29.25 9V29.25C29.8467 29.25 30.419 29.0129 30.841 28.591C31.2629 28.169 31.5 27.5967 31.5 27V4.5C31.5 3.90326 31.2629 3.33097 30.841 2.90901C30.419 2.48705 29.8467 2.25 29.25 2.25H11.25C10.6533 2.25 10.081 2.48705 9.65901 2.90901C9.23705 3.33097 9 3.90326 9 4.5H6.75C6.75 3.30653 7.22411 2.16193 8.06802 1.31802C8.91193 0.474106 10.0565 0 11.25 0Z" fill="white"/>
<path d="M2.25 13.5V12.375C2.25 12.0766 2.36853 11.7905 2.5795 11.5795C2.79048 11.3685 3.07663 11.25 3.375 11.25C3.67337 11.25 3.95952 11.3685 4.1705 11.5795C4.38147 11.7905 4.5 12.0766 4.5 12.375V13.5H5.625C5.92337 13.5 6.20952 13.6185 6.42049 13.8295C6.63147 14.0405 6.75 14.3266 6.75 14.625C6.75 14.9234 6.63147 15.2095 6.42049 15.4205C6.20952 15.6315 5.92337 15.75 5.625 15.75H1.125C0.826631 15.75 0.540483 15.6315 0.329505 15.4205C0.118526 15.2095 0 14.9234 0 14.625C0 14.3266 0.118526 14.0405 0.329505 13.8295C0.540483 13.6185 0.826631 13.5 1.125 13.5H2.25ZM2.25 20.25V19.125C2.25 18.8266 2.36853 18.5405 2.5795 18.3295C2.79048 18.1185 3.07663 18 3.375 18C3.67337 18 3.95952 18.1185 4.1705 18.3295C4.38147 18.5405 4.5 18.8266 4.5 19.125V20.25H5.625C5.92337 20.25 6.20952 20.3685 6.42049 20.5795C6.63147 20.7905 6.75 21.0766 6.75 21.375C6.75 21.6734 6.63147 21.9595 6.42049 22.1705C6.20952 22.3815 5.92337 22.5 5.625 22.5H1.125C0.826631 22.5 0.540483 22.3815 0.329505 22.1705C0.118526 21.9595 0 21.6734 0 21.375C0 21.0766 0.118526 20.7905 0.329505 20.5795C0.540483 20.3685 0.826631 20.25 1.125 20.25H2.25ZM2.25 25.875V27H1.125C0.826631 27 0.540483 27.1185 0.329505 27.3295C0.118526 27.5405 0 27.8266 0 28.125C0 28.4234 0.118526 28.7095 0.329505 28.9205C0.540483 29.1315 0.826631 29.25 1.125 29.25H5.625C5.92337 29.25 6.20952 29.1315 6.42049 28.9205C6.63147 28.7095 6.75 28.4234 6.75 28.125C6.75 27.8266 6.63147 27.5405 6.42049 27.3295C6.20952 27.1185 5.92337 27 5.625 27H4.5V25.875C4.5 25.5766 4.38147 25.2905 4.1705 25.0795C3.95952 24.8685 3.67337 24.75 3.375 24.75C3.07663 24.75 2.79048 24.8685 2.5795 25.0795C2.36853 25.2905 2.25 25.5766 2.25 25.875Z" fill="white"/>
</g>
<defs>
<clipPath id="clip0_525_2">
<rect width="36" height="36" fill="white"/>
</clipPath>
</defs>
</svg>
