<svg width="34" height="30" viewBox="0 0 34 30" fill="none" xmlns="http://www.w3.org/2000/svg">
<g clip-path="url(#clip0_494_42)">
<path d="M6.375 0H27.625C28.7522 0 29.8332 0.395088 30.6302 1.09835C31.4272 1.80161 31.875 2.75544 31.875 3.75V26.25C31.875 27.2446 31.4272 28.1984 30.6302 28.9016C29.8332 29.6049 28.7522 30 27.625 30H6.375C5.24783 30 4.16683 29.6049 3.3698 28.9016C2.57277 28.1984 2.125 27.2446 2.125 26.25V24.375H4.25V26.25C4.25 26.7473 4.47388 27.2242 4.8724 27.5758C5.27091 27.9275 5.81141 28.125 6.375 28.125H27.625C28.1886 28.125 28.7291 27.9275 29.1276 27.5758C29.5261 27.2242 29.75 26.7473 29.75 26.25V3.75C29.75 3.25272 29.5261 2.77581 29.1276 2.42417C28.7291 2.07254 28.1886 1.875 27.625 1.875H6.375C5.81141 1.875 5.27091 2.07254 4.8724 2.42417C4.47388 2.77581 4.25 3.25272 4.25 3.75V5.625H2.125V3.75C2.125 2.75544 2.57277 1.80161 3.3698 1.09835C4.16683 0.395088 5.24783 0 6.375 0Z" fill="white"/>
<path d="M27.625 30L6.375 30C5.24783 30 4.16683 29.6049 3.3698 28.9017C2.57277 28.1984 2.125 27.2446 2.125 26.25L2.125 3.75C2.125 2.75544 2.57277 1.80161 3.3698 1.09835C4.16683 0.395089 5.24783 0 6.375 0L27.625 0C28.7522 0 29.8332 0.395089 30.6302 1.09835C31.4272 1.80161 31.875 2.75544 31.875 3.75V5.625H29.75V3.75C29.75 3.25272 29.5261 2.77581 29.1276 2.42418C28.7291 2.07254 28.1886 1.875 27.625 1.875L6.375 1.875C5.81141 1.875 5.27091 2.07254 4.8724 2.42418C4.47388 2.77581 4.25 3.25272 4.25 3.75L4.25 26.25C4.25 26.7473 4.47388 27.2242 4.8724 27.5758C5.27091 27.9275 5.81141 28.125 6.375 28.125L27.625 28.125C28.1886 28.125 28.7291 27.9275 29.1276 27.5758C29.5261 27.2242 29.75 26.7473 29.75 26.25V24.375H31.875V26.25C31.875 27.2446 31.4272 28.1984 30.6302 28.9017C29.8332 29.6049 28.7522 30 27.625 30Z" fill="white"/>
<path d="M22.0606 20.328C22.0899 20.4013 22.1046 20.5113 22.1046 20.658C22.1046 20.79 22.1046 20.9 22.1046 20.988C22.1046 21.1053 22.0826 21.2153 22.0386 21.318C21.9946 21.4207 21.9359 21.516 21.8626 21.604C21.7306 21.78 21.5399 21.912 21.2906 22C20.9386 22.1173 20.6086 22.176 20.3006 22.176C20.1392 22.1907 19.9706 22.198 19.7946 22.198C19.6186 22.198 19.4426 22.2127 19.2666 22.242H19.1786C18.0492 22.2567 16.8832 22.2567 15.6806 22.242C15.3872 22.2273 15.0572 22.2273 14.6906 22.242C14.3239 22.2713 13.9646 22.264 13.6126 22.22C13.2606 22.1907 12.9379 22.11 12.6446 21.978C12.3659 21.8313 12.1679 21.604 12.0506 21.296C12.0212 21.2227 11.9992 21.1567 11.9846 21.098C11.9699 21.0247 11.9626 20.9513 11.9626 20.878C11.9039 20.3793 11.8819 19.888 11.8966 19.404C11.9112 18.92 11.9186 18.4433 11.9186 17.974L11.9626 14.784V11.836C11.9626 11.308 11.9626 10.8387 11.9626 10.428C11.9772 10.0173 11.9919 9.56267 12.0066 9.064V8.954C12.0212 8.80733 12.0286 8.66067 12.0286 8.514C12.0432 8.36733 12.0506 8.22067 12.0506 8.074C12.0799 7.73667 12.1606 7.45067 12.2926 7.216C12.3806 6.996 12.5346 6.82 12.7546 6.688C12.9452 6.556 13.1726 6.49 13.4366 6.49C13.5392 6.49 13.6346 6.49733 13.7226 6.512C13.8252 6.512 13.9206 6.51933 14.0086 6.534C14.0966 6.54867 14.1772 6.578 14.2506 6.622C14.3386 6.666 14.4266 6.72467 14.5146 6.798C14.6026 6.90067 14.6832 7.02533 14.7566 7.172C14.8152 7.33333 14.8519 7.49467 14.8666 7.656C14.8812 7.75867 14.8959 7.854 14.9106 7.942C14.9252 8.03 14.9326 8.118 14.9326 8.206C14.9032 8.294 14.8886 8.382 14.8886 8.47C14.8886 8.558 14.8886 8.63867 14.8886 8.712V9.108L14.8006 19.47L19.1566 19.514H20.1906C20.2786 19.514 20.3739 19.5213 20.4766 19.536C20.5792 19.536 20.6819 19.5433 20.7846 19.558C20.9019 19.5727 21.0046 19.5873 21.0926 19.602C21.1806 19.6167 21.2686 19.6387 21.3566 19.668C21.5179 19.712 21.6499 19.7853 21.7526 19.888C21.9139 20.0347 22.0166 20.1813 22.0606 20.328Z" fill="white"/>
</g>
<defs>
<clipPath id="clip0_494_42">
<rect width="34" height="30" fill="white"/>
</clipPath>
</defs>
</svg>
