<svg width="47" height="61" viewBox="0 0 47 61" fill="none" xmlns="http://www.w3.org/2000/svg">
<path d="M21.529 57.405C20.959 57.405 20.374 57.315 19.774 57.135C19.174 56.955 18.694 56.67 18.334 56.28L26.254 45.345L19.054 34.95C19.294 34.68 19.714 34.47 20.314 34.32C20.944 34.17 21.514 34.095 22.024 34.095C23.584 34.095 24.679 34.56 25.309 35.49L29.224 41.655L28.324 42.96L28.639 43.185L33.724 35.49C34.294 34.56 35.449 34.095 37.189 34.095C37.669 34.095 38.194 34.17 38.764 34.32C39.334 34.47 39.739 34.68 39.979 34.95L32.734 45.345L40.699 56.28C40.339 56.67 39.874 56.955 39.304 57.135C38.764 57.315 38.224 57.405 37.684 57.405C37.054 57.405 36.439 57.285 35.839 57.045C35.239 56.835 34.819 56.55 34.579 56.19L29.494 48.675L24.454 56.19C24.184 56.58 23.779 56.88 23.239 57.09C22.729 57.3 22.159 57.405 21.529 57.405Z" fill="white"/>
<path d="M19.3172 58.405C16.8272 58.405 14.9372 57.7 13.6472 56.29C12.3872 54.85 11.7572 53.035 11.7572 50.845V29.515C11.7572 28.285 12.2072 27.415 13.1072 26.905C14.0372 26.365 15.4622 26.095 17.3822 26.095V50.62C17.3822 51.64 17.6072 52.39 18.0572 52.87C18.5072 53.32 19.2272 53.545 20.2172 53.545C21.3272 53.545 22.4372 53.26 23.5472 52.69C23.8472 52.96 24.0722 53.305 24.2222 53.725C24.4022 54.115 24.4922 54.52 24.4922 54.94C24.4922 55.84 24.0422 56.65 23.1422 57.37C22.2422 58.06 20.9672 58.405 19.3172 58.405Z" fill="white"/>
<path d="M38.4916 31.36C37.6116 31.36 36.8649 31.08 36.2516 30.52C35.6649 29.9333 35.3716 29.2 35.3716 28.32C35.3716 27.44 35.6649 26.7067 36.2516 26.12C36.8649 25.5067 37.6116 25.2 38.4916 25.2C39.3449 25.2 40.0782 25.5067 40.6916 26.12C41.3316 26.7067 41.6516 27.44 41.6516 28.32C41.6516 29.1733 41.3316 29.8933 40.6916 30.48C40.0782 31.0667 39.3449 31.36 38.4916 31.36Z" fill="white"/>
</svg>
