<svg width="25" height="25" viewBox="0 0 25 25" fill="none" xmlns="http://www.w3.org/2000/svg">
<path d="M24.9307 8.13636C25.0965 8.56124 24.9566 9.03497 24.5991 9.33776L22.356 11.262C22.413 11.6673 22.444 12.0824 22.444 12.5024C22.444 12.9224 22.413 13.3376 22.356 13.7429L24.5991 15.6671C24.9566 15.9699 25.0965 16.4436 24.9307 16.8685C24.7028 17.4497 24.4282 18.0064 24.1122 18.5437L23.8687 18.9392C23.5268 19.4765 23.1434 19.9844 22.7238 20.463C22.4181 20.8146 21.9104 20.9318 21.4546 20.7951L18.569 19.9307C17.8748 20.4337 17.1081 20.8537 16.2896 21.1711L15.642 23.9598C15.5384 24.4042 15.1757 24.7558 14.6991 24.8291C13.9842 24.9414 13.2486 25 12.4974 25C11.7462 25 11.0106 24.9414 10.2957 24.8291C9.81907 24.7558 9.45643 24.4042 9.35282 23.9598L8.70526 21.1711C7.88673 20.8537 7.12001 20.4337 6.42582 19.9307L3.54544 20.8C3.08956 20.9367 2.58186 20.8146 2.27621 20.4679C1.85659 19.9893 1.47323 19.4813 1.13131 18.9441L0.887828 18.5485C0.571815 18.0113 0.297247 17.4546 0.069303 16.8734C-0.0964742 16.4485 0.0434003 15.9748 0.400857 15.672L2.64403 13.7478C2.58704 13.3376 2.55596 12.9224 2.55596 12.5024C2.55596 12.0824 2.58704 11.6673 2.64403 11.262L0.400857 9.33776C0.0434003 9.03497 -0.0964742 8.56124 0.069303 8.13636C0.297247 7.55519 0.571815 6.99844 0.887828 6.46122L1.13131 6.06564C1.47323 5.52842 1.85659 5.02051 2.27621 4.5419C2.58186 4.19027 3.08956 4.07306 3.54544 4.20981L6.431 5.07423C7.12519 4.57121 7.89191 4.1512 8.71044 3.83376L9.358 1.04513C9.46162 0.600703 9.82425 0.249072 10.3009 0.175816C11.0158 0.0586052 11.7514 0 12.5026 0C13.2538 0 13.9894 0.0586052 14.7043 0.170932C15.1809 0.244188 15.5436 0.595819 15.6472 1.04024L16.2947 3.82887C17.1133 4.14632 17.88 4.56632 18.5742 5.06935L21.4597 4.20492C21.9156 4.06818 22.4233 4.19027 22.729 4.53702C23.1486 5.01563 23.532 5.52354 23.8739 6.06075L24.1174 6.45634C24.4334 6.99355 24.7079 7.5503 24.9359 8.13147L24.9307 8.13636ZM12.5026 16.4095C13.6018 16.4095 14.6559 15.9978 15.4331 15.2651C16.2104 14.5324 16.647 13.5386 16.647 12.5024C16.647 11.4662 16.2104 10.4725 15.4331 9.73977C14.6559 9.00706 13.6018 8.59543 12.5026 8.59543C11.4034 8.59543 10.3493 9.00706 9.57204 9.73977C8.7948 10.4725 8.35816 11.4662 8.35816 12.5024C8.35816 13.5386 8.7948 14.5324 9.57204 15.2651C10.3493 15.9978 11.4034 16.4095 12.5026 16.4095Z" fill="white"/>
</svg>
