<svg width="31" height="31" viewBox="0 0 31 31" fill="none" xmlns="http://www.w3.org/2000/svg">
<path d="M11.0714 3.32143C11.0714 1.48772 12.5592 0 14.3929 0H16.6071C18.4408 0 19.9286 1.48772 19.9286 3.32143V27.6786C19.9286 29.5123 18.4408 31 16.6071 31H14.3929C12.5592 31 11.0714 29.5123 11.0714 27.6786V3.32143ZM0 16.6071C0 14.7734 1.48772 13.2857 3.32143 13.2857H5.53571C7.36942 13.2857 8.85714 14.7734 8.85714 16.6071V27.6786C8.85714 29.5123 7.36942 31 5.53571 31H3.32143C1.48772 31 0 29.5123 0 27.6786V16.6071ZM25.4643 4.42857H27.6786C29.5123 4.42857 31 5.91629 31 7.75V27.6786C31 29.5123 29.5123 31 27.6786 31H25.4643C23.6306 31 22.1429 29.5123 22.1429 27.6786V7.75C22.1429 5.91629 23.6306 4.42857 25.4643 4.42857Z" fill="white"/>
</svg>
